<svg xmlns="http://www.w3.org/2000/svg" viewBox="0 0 24 24" role="img" aria-label="WhatsApp">
  <circle cx="12" cy="12" r="12" fill="#25D366"/>
  <path
    fill="#ffffff"
    d="M17.472 14.382c-.297-.149-1.758-.867-2.03-.967-.273-.099-.471-.148-.67.149-.198.297-.768.966-.94 1.164-.173.198-.347.223-.644.074-.297-.149-1.255-.463-2.39-1.475-.883-.788-1.48-1.761-1.653-2.059-.173-.297-.018-.458.13-.606.134-.133.297-.347.446-.52.149-.174.198-.298.298-.497.099-.198.05-.371-.025-.52-.075-.149-.669-1.611-.916-2.206-.242-.579-.487-.5-.669-.51l-.57-.01c-.198 0-.52.074-.792.372-.273.297-1.04 1.016-1.04 2.479 0 1.462 1.065 2.875 1.213 3.074.149.198 2.095 3.2 5.076 4.487.709.306 1.261.489 1.692.626.71.226 1.356.194 1.867.117.57-.085 1.758-.719 2.006-1.413.248-.694.248-1.289.173-1.413-.074-.124-.272-.198-.57-.347z"
  />
</svg>
